<svg width="52" height="48" viewBox="0 0 52 48" fill="none" xmlns="http://www.w3.org/2000/svg">
<g clip-path="url(#clip0_301_2717)">
<path d="M51.0834 23.6365C51.0712 26.1532 50.8001 28.6895 50.2021 31.1944C49.5075 34.103 48.0925 36.6237 46.1794 38.885C43.9869 41.4768 41.4224 43.6509 38.61 45.5366C37.7155 46.1364 36.7481 46.6025 35.6707 46.7612C35.3866 46.803 34.8628 46.7629 34.8249 46.6423C34.7095 46.2744 35.0486 46.0523 35.3497 45.8547C36.4733 45.1175 37.6217 44.4124 38.701 43.6142C44.281 39.4877 47.2529 33.9171 47.8219 27.0223C48.1213 23.3947 47.8311 19.8302 46.803 16.3311C45.6066 12.2595 43.3441 8.9951 39.6942 6.73088C37.8725 5.60072 36.0508 4.48254 34.0258 3.75168C32.6304 3.24802 31.1818 2.97905 29.6977 2.93416C29.4169 2.92565 29.019 2.83701 28.9555 3.25809C28.8953 3.65739 29.2156 3.86072 29.5485 3.94859C29.9365 4.05104 30.3407 4.13499 30.7399 4.14472C32.0533 4.17676 33.2753 4.55443 34.4585 5.07909C36.6652 6.05749 38.7278 7.27369 40.5305 8.89413C43.4574 11.5253 45.1226 14.821 45.6945 18.7024C46.0434 21.071 46.1781 23.4495 46.1528 25.84C46.1124 29.6563 44.8336 33.0687 42.8738 36.2991C39.0939 42.5298 33.4375 45.9321 26.46 47.407C22.2342 48.3003 18.0542 48.2252 13.911 46.9042C9.66119 45.5491 6.39214 42.9556 4.09209 39.1597C3.64568 38.423 3.4578 37.5283 3.16379 36.7017C3.11727 36.5711 3.09401 36.3977 3.14131 36.2754C3.22878 36.0492 3.33093 35.7509 3.51334 35.6639C3.65879 35.5945 3.99263 35.7366 4.13773 35.8866C4.4977 36.2586 4.81168 36.6786 5.11923 37.0976C6.63478 39.1621 8.3245 41.0704 10.4356 42.534C13.285 44.5094 16.4929 45.5592 19.9273 45.9336C20.2115 45.9646 20.5105 45.9547 20.7895 45.8985C20.94 45.8682 21.0626 45.6995 21.1978 45.5932C21.0694 45.4795 20.9558 45.2947 20.8099 45.2641C20.0606 45.1069 19.3039 44.9845 18.5483 44.8589C16.7507 44.56 15.1263 43.8267 13.5777 42.8962C11.5726 41.6915 9.70675 40.305 8.09357 38.6045C5.64348 36.0218 4.23146 32.9572 4.07811 29.3871C3.97267 26.9328 3.88615 24.4661 4.01164 22.0162C4.18312 18.6679 5.47581 15.6792 7.42935 12.9706C9.65286 9.88754 12.5863 7.74296 16.1075 6.36588C16.9149 6.05011 17.713 5.70994 18.5078 5.36335C18.6306 5.30978 18.7119 5.16053 18.8124 5.05556C18.668 4.99149 18.504 4.8465 18.3824 4.8761C17.4439 5.10471 16.479 5.27948 15.5864 5.63284C8.49702 8.43936 4.28379 13.6378 2.92687 21.1248C2.65481 22.6259 2.62782 24.1715 2.49132 25.6968C2.46329 26.0096 2.5269 26.3962 2.14879 26.5103C1.75854 26.6281 1.42946 26.3474 1.31413 26.0369C1.10151 25.4647 0.935674 24.8562 0.871977 24.2501C0.185797 17.7153 2.5781 12.358 7.21734 7.89377C9.82451 5.38497 12.9414 3.69559 16.3094 2.453C20.4371 0.930057 24.7049 -0.0466009 29.104 0.00184563C33.62 0.0515945 37.9368 1.11994 41.7641 3.65956C44.966 5.78426 47.1766 8.76077 48.7425 12.2253C50.4211 15.9392 51.2361 19.16 51.0834 23.6365ZM13.6622 27.347L13.6612 27.3466C13.747 27.6254 13.882 27.7186 14.3458 27.6694C15.9011 27.5045 17.2089 26.8586 18.1069 25.5454C19.1888 23.9633 18.5466 22.0953 16.7209 21.5022C15.3993 21.0729 14.1492 21.3298 12.988 22.0495C12.8002 22.166 12.6036 22.3541 12.5339 22.5523C12.4562 22.7732 12.4352 23.0964 12.548 23.2748C12.6329 23.4092 12.9664 23.3939 13.192 23.4272C13.2672 23.4383 13.3506 23.3937 13.4905 23.36C11.9996 25.5075 11.0992 27.8438 10.5148 30.3064C10.3663 30.9321 10.3253 31.5892 10.301 32.2343C10.2944 32.4092 10.495 32.6797 10.6635 32.746C10.8017 32.8003 11.0982 32.6683 11.2106 32.5278C11.4694 32.2041 11.7065 31.8452 11.8677 31.4647C12.3919 30.2274 12.8744 28.9726 13.3838 27.7289C13.4417 27.5873 13.5678 27.4736 13.6622 27.347ZM33.8512 17.7301C35.8456 17.7301 37.6954 17.7274 39.5453 17.7319C40.0361 17.7331 40.3822 17.5197 40.5305 17.1143C40.7014 16.6473 40.4074 16.3925 40.0824 16.1954C39.5895 15.8965 39.0731 15.6347 38.5583 15.3738C36.6025 14.3823 34.5072 13.7656 32.4229 13.1253C32.0357 13.0064 31.8516 12.8047 31.7689 12.4288C31.5981 11.6528 31.4128 10.8797 31.214 10.1103C31.0739 9.5683 30.8383 9.42435 30.2969 9.53218C27.4354 10.1022 24.5768 10.6867 21.7123 11.2411C21.2911 11.3226 21.0051 11.505 20.7775 11.8526C20.2235 12.6988 19.643 13.5279 19.0953 14.3781C18.8898 14.6972 18.6378 14.9057 18.2826 15.0441C15.6491 16.0706 13.1473 17.3566 10.7817 18.9053C10.5523 19.0554 10.3067 19.1982 10.1235 19.3955C9.99452 19.5344 9.85011 19.811 9.908 19.9342C9.98523 20.0986 10.2425 20.1975 10.4412 20.2778C10.5493 20.3214 10.6976 20.2761 10.8259 20.2575C12.4986 20.0151 14.1686 19.7521 15.8439 19.53C19.152 19.0916 22.4564 18.6089 25.7751 18.2708C28.5044 17.9928 31.2521 17.8974 33.8512 17.7301ZM20.9965 34.8027C20.955 35.4234 20.8901 36.0528 20.8799 36.6832C20.8745 37.0223 20.989 37.3473 21.3766 37.4645C21.7592 37.5801 22.0901 37.4461 22.2942 37.1436C22.5079 36.8268 22.694 36.4671 22.7885 36.0996C22.9535 35.4575 23.0544 34.7972 23.1514 34.14C23.1991 33.8161 23.3035 33.5797 23.6132 33.4227C23.8548 33.3003 24.0816 33.129 24.2753 32.9389C24.3917 32.8245 24.4319 32.6322 24.5064 32.4749C24.3344 32.4568 24.1597 32.4114 23.9912 32.4285C23.8407 32.4438 23.6973 32.5279 23.4785 32.608C23.5387 32.3071 23.5804 32.0708 23.6338 31.8372C23.7783 31.2032 23.9519 30.5745 24.0605 29.9346C24.0923 29.7471 23.9452 29.5291 23.8801 29.3251C23.6788 29.3991 23.4244 29.4204 23.2879 29.5585C23.0485 29.8007 22.8371 30.0937 22.6927 30.4023C22.3137 31.2121 21.9814 32.0437 21.6193 32.8615C21.5605 32.9944 21.4649 33.1781 21.3516 33.2084C20.7012 33.3826 20.0403 33.5178 19.3299 33.6782C19.6524 32.6975 19.9635 31.798 20.239 30.8877C20.3336 30.5752 20.3812 30.2346 20.3738 29.9085C20.3653 29.5327 20.0639 29.3936 19.7769 29.6364C19.4943 29.8756 19.2134 30.1539 19.0355 30.4729C18.4382 31.5437 17.8763 32.6347 17.3267 33.731C17.2026 33.9786 17.068 34.0894 16.7937 34.1471C16.304 34.2499 15.7995 34.3661 15.3573 34.5884C14.8359 34.8504 14.8533 35.3412 15.3718 35.6181C15.6946 35.7905 16.071 35.8622 16.4668 35.9934C16.425 36.1513 16.3556 36.3406 16.3266 36.536C16.2126 37.3041 16.0838 38.0718 16.0179 38.8445C15.9892 39.1809 16.1451 39.5089 16.519 39.6262C16.8867 39.7414 17.2391 39.6429 17.4538 39.3413C17.6925 39.0061 17.9076 38.6315 18.0312 38.2419C18.2754 37.4717 18.4404 36.6767 18.6605 35.8983C18.7008 35.7557 18.8213 35.577 18.9484 35.5278C19.6312 35.2637 20.3277 35.0353 20.9965 34.8025V34.8027ZM29.3976 25.4348C29.7926 25.0348 30.1263 24.698 30.4588 24.3601C30.7934 24.02 31.1345 23.6856 31.4585 23.3356C31.6934 23.0818 31.9372 22.8268 32.1205 22.5366C32.4659 21.9899 32.264 21.4838 31.6353 21.3527C31.3046 21.2838 30.9453 21.2957 30.6063 21.3352C29.6749 21.4437 28.7501 21.6192 27.8169 21.6983C27.4534 21.7292 27.1482 21.726 27.0381 22.1313C26.9391 22.4961 27.1533 22.9016 27.5681 23.0022C27.9245 23.0887 28.3091 23.0878 28.6799 23.0778C29.0672 23.0675 29.4531 23.0002 29.9587 22.9447C29.7164 23.1473 29.5735 23.2657 29.4318 23.3856C28.7478 23.9645 28.0381 24.5164 27.3912 25.1341C27.055 25.4552 26.7743 25.8658 26.5698 26.2853C26.3404 26.7557 26.612 27.0371 27.1264 26.9575C27.5112 26.8979 27.8984 26.8345 28.2864 26.818C29.0082 26.787 29.7332 26.8168 30.4536 26.77C31.2698 26.717 32.0606 26.5555 32.6649 25.9206C32.7186 25.8643 32.844 25.8323 32.9222 25.8501C33.6659 26.018 34.325 25.7802 34.9513 25.4238C35.3374 25.204 35.6994 24.9418 36.068 24.7015C36.7545 25.2288 37.4846 25.1366 38.2184 24.8823C38.498 24.7855 38.8936 24.6728 38.8078 24.3176C38.763 24.1319 38.3855 23.9621 38.1313 23.9042C37.5088 23.7625 37.4139 23.6439 37.6055 23.0166C37.7152 22.6576 37.8539 22.3044 37.9273 21.9381C38.0341 21.4048 37.7396 21.1509 37.2162 21.2816C37.1346 21.302 37.047 21.3129 36.9633 21.3084C35.2659 21.2163 33.9513 21.9816 32.8558 23.1861C32.3011 23.7959 31.9566 24.5033 32.2655 25.3924C31.3256 25.8073 30.4017 25.5144 29.3979 25.4348H29.3976ZM24.5335 24.264C23.5997 25.1499 22.6558 26.0203 21.7441 26.9231C21.3888 27.2749 21.0772 27.6807 20.8006 28.0984C20.6225 28.3675 20.5859 28.7055 20.8309 28.9893C21.067 29.2628 21.3613 29.2081 21.6714 29.1357C22.3739 28.9716 23.0752 28.7586 23.7884 28.6946C24.8799 28.5968 25.9808 28.5977 27.0781 28.5753C28.2604 28.5512 29.4297 28.4772 30.4104 27.7115C30.5465 27.6053 30.5738 27.3598 30.6516 27.1788C30.46 27.1487 30.2639 27.0764 30.0775 27.0958C29.3358 27.1725 28.5926 27.3817 27.8584 27.3499C26.5259 27.2922 25.2043 26.99 23.7606 27.2519C23.8956 27.1107 23.9532 27.0523 24.0088 26.992C24.7832 26.1529 25.5737 25.3277 26.3216 24.4657C26.5496 24.203 26.7143 23.8541 26.8118 23.5169C26.9473 23.0482 26.6768 22.7414 26.1908 22.7788C24.8802 22.8796 23.5699 22.9902 22.2637 23.1345C22.079 23.1549 21.8176 23.3598 21.7733 23.5273C21.7287 23.696 21.8572 23.9936 22.0067 24.1096C22.196 24.2565 22.4823 24.3368 22.7282 24.3402C23.3165 24.3483 23.9057 24.2947 24.5335 24.264ZM31.5326 31.2139C31.0136 32.5781 30.702 33.9508 30.8508 35.3952C30.8796 35.6751 30.8573 36.0633 31.21 36.0804C31.3592 36.0877 31.5904 35.7333 31.6761 35.503C32.2105 34.0678 32.7195 32.623 33.2235 31.1768C33.318 30.9057 33.4734 30.7649 33.7435 30.6639C34.758 30.2847 35.7617 29.8765 36.7672 29.4735C36.9677 29.3931 37.1703 29.3054 37.348 29.1856C37.4376 29.1252 37.4737 28.9852 37.534 28.8813C37.4246 28.8286 37.3175 28.7387 37.2054 28.732C37.0358 28.7219 36.8606 28.7589 36.6918 28.7946C35.8194 28.979 34.9484 29.1694 34.0482 29.364C34.1928 28.9781 34.344 28.637 34.4461 28.2819C34.526 28.0039 34.4983 27.6674 34.1832 27.593C33.9857 27.5464 33.6766 27.667 33.5202 27.8185C33.244 28.086 32.9778 28.4052 32.8288 28.7547C32.4391 29.6686 31.8043 30.0303 30.8271 29.8582C30.4937 29.7995 30.2208 29.9735 30.1456 30.3219C30.067 30.6856 30.2989 30.9032 30.6062 31.0083C30.8892 31.1051 31.1929 31.1414 31.5327 31.2141L31.5326 31.2139ZM26.3466 33.6231C26.3734 33.0818 26.466 32.5594 26.409 32.0539C26.3134 31.2056 25.3982 30.8768 24.7415 31.4264C24.6601 31.4945 24.6314 31.7872 24.6581 31.7993C25.1682 32.0303 24.9141 32.3838 24.8284 32.7156C24.6918 33.2448 24.4917 33.7707 24.4499 34.3082C24.3902 35.0772 24.9465 35.5089 25.705 35.3933C26.3216 35.2994 26.801 34.9577 27.2348 34.5453C27.5449 34.2504 27.8269 33.926 28.1432 33.5916C28.248 34.2521 28.5824 34.7285 29.1227 35.0378C29.2611 35.117 29.5216 35.1356 29.6374 35.0549C29.7375 34.985 29.7359 34.7348 29.7361 34.5642C29.7362 34.3509 29.6565 34.1345 29.6739 33.9246C29.7276 33.2768 29.8092 32.6314 29.8841 31.9854C29.9158 31.7126 30.0072 31.4361 29.9806 31.1703C29.956 30.9244 29.8766 30.5921 29.7021 30.474C29.4245 30.286 29.2055 30.5719 29.0394 30.7927C28.892 30.9885 28.7647 31.1998 28.633 31.4071C28.0479 32.3275 27.2549 33.0305 26.3466 33.6231ZM18.085 27.6916C18.1793 28.2103 18.2765 28.6738 18.6643 29.0117C19.018 29.3198 19.4887 29.1797 19.5996 28.7799C19.725 28.328 19.8761 27.8805 20.0541 27.4467C20.3927 26.6216 20.8145 25.8258 21.0896 24.9813C21.2335 24.5395 21.1625 24.0188 21.1369 23.5365C21.1302 23.4109 20.9481 23.236 20.8127 23.1944C20.7032 23.1607 20.4835 23.254 20.4141 23.3584C19.7929 24.2938 19.1602 25.2247 18.604 26.1987C18.3472 26.6484 18.253 27.1911 18.085 27.6916ZM20.2618 21.7802C20.2529 22.4735 20.7048 22.7954 21.1932 22.5554C21.43 22.4392 21.6592 22.2508 21.8159 22.0388C22.2859 21.4025 22.73 20.7461 23.1567 20.0798C23.2501 19.9341 23.2294 19.7152 23.2612 19.5301C23.0714 19.5142 22.8614 19.4374 22.6951 19.4925C21.7958 19.7903 21.0422 20.3063 20.5346 21.1228C20.387 21.3603 20.316 21.6455 20.2618 21.7802Z" fill="#C8102E"/>
<path d="M0.0485975 30.2546C0.083744 29.9832 0.102489 29.7085 0.157682 29.4412C0.251666 28.9858 0.482157 28.6277 0.974988 28.5381C1.48457 28.4454 1.97202 28.5649 2.22525 29.025C2.46303 29.457 2.64128 29.9497 2.71877 30.436C2.85962 31.3189 2.91021 32.2164 2.99066 33.1085C3.03318 33.5804 2.71782 33.8958 2.24668 33.8292C1.36637 33.7047 0.670559 33.3035 0.432258 32.3884C0.251145 31.6928 0.141454 30.9786 0 30.2728C0.0162281 30.2667 0.0323694 30.2606 0.0485975 30.2544V30.2546Z" fill="#C8102E"/>
<path d="M36.0602 22.6369C35.8054 23.5883 35.1842 24.0858 34.1394 24.1754C34.3042 23.4623 35.1346 22.7972 36.0602 22.6369Z" fill="#C8102E"/>
<path d="M13.6622 27.347C13.6801 27.1822 13.6706 27.0086 13.7202 26.8542C14.1073 25.6498 14.5059 24.449 14.928 23.1649C15.4125 23.1657 16 23.2518 16.4731 23.6831C16.9457 24.114 16.9524 24.8492 16.4959 25.4592C16.0055 26.1146 15.3309 26.5269 14.5851 26.8317C14.3716 26.9189 14.1432 26.9734 13.9378 27.0754C13.8277 27.1301 13.752 27.254 13.6609 27.3466L13.6622 27.347Z" fill="#C8102E"/>
<path d="M33.8512 17.7299C31.2521 17.8972 28.5043 17.9926 25.775 18.2706C22.4562 18.6087 19.152 19.0913 15.8439 19.5298C14.1685 19.7519 12.4985 20.0149 10.8258 20.2573C10.6975 20.2759 10.5492 20.3212 10.4411 20.2775C10.2424 20.1973 9.98516 20.0983 9.90792 19.934C9.85004 19.8108 9.99444 19.5342 10.1234 19.3953C10.3065 19.198 10.5523 19.0553 10.7816 18.9051C13.1472 17.3565 15.649 16.0704 18.2825 15.0438C18.6377 14.9054 18.8897 14.6969 19.0952 14.3779C19.6429 13.5277 20.2234 12.6986 20.7775 11.8524C21.005 11.5049 21.291 11.3224 21.7122 11.2409C24.5767 10.6865 27.4353 10.102 30.2969 9.53197C30.8381 9.42414 31.0738 9.56817 31.214 10.1101C31.4129 10.8794 31.5981 11.6526 31.7688 12.4286C31.8515 12.8044 32.0356 13.0061 32.4228 13.1251C34.507 13.7654 36.6024 14.3821 38.5583 15.3736C39.073 15.6346 39.5895 15.8963 40.0823 16.1952C40.4073 16.3924 40.7013 16.6471 40.5305 17.1141C40.3821 17.5195 40.0361 17.7328 39.5452 17.7317C37.6954 17.7272 35.8455 17.7299 33.8512 17.7299Z" fill="white"/>
<path d="M20.9964 34.8025C20.3275 35.0352 19.6311 35.2637 18.9484 35.5278C18.8212 35.5769 18.7008 35.7557 18.6604 35.8983C18.4404 36.6767 18.2752 37.4716 18.0311 38.2418C17.9075 38.6316 17.6924 39.0061 17.4537 39.3413C17.239 39.6429 16.8867 39.7413 16.5189 39.6261C16.1451 39.5089 15.9891 39.1809 16.0179 38.8445C16.0837 38.0717 16.2125 37.3041 16.3265 36.536C16.3555 36.3406 16.4249 36.1512 16.4667 35.9934C16.071 35.8621 15.6945 35.7904 15.3718 35.6181C14.8532 35.3411 14.8359 34.8503 15.3572 34.5884C15.7994 34.3661 16.304 34.2499 16.7936 34.1471C17.068 34.0894 17.2026 33.9785 17.3266 33.731C17.8762 32.6347 18.4381 31.5435 19.0354 30.4728C19.2134 30.1539 19.4942 29.8755 19.7768 29.6364C20.0639 29.3935 20.3652 29.5326 20.3738 29.9085C20.3811 30.2345 20.3335 30.5751 20.2389 30.8877C19.9635 31.798 19.6523 32.6975 19.3299 33.6781C20.0402 33.5178 20.7011 33.3826 21.3515 33.2083C21.4649 33.178 21.5605 32.9942 21.6192 32.8615C21.9814 32.0435 22.3137 31.212 22.6926 30.4023C22.837 30.0936 23.0485 29.8007 23.2879 29.5584C23.4243 29.4204 23.6787 29.3989 23.8801 29.3251C23.9452 29.5291 24.0922 29.747 24.0604 29.9346C23.9518 30.5744 23.7783 31.2032 23.6337 31.8372C23.5804 32.0708 23.5387 32.307 23.4784 32.608C23.6972 32.5278 23.8407 32.4438 23.9911 32.4285C24.1596 32.4114 24.3343 32.4567 24.5063 32.4749C24.4318 32.6321 24.3916 32.8244 24.2752 32.9388C24.0816 33.129 23.8547 33.3003 23.6131 33.4227C23.3034 33.5797 23.199 33.8161 23.1513 34.1399C23.0543 34.7972 22.9534 35.4575 22.7884 36.0996C22.694 36.4672 22.5078 36.8268 22.2941 37.1435C22.09 37.4461 21.7591 37.5801 21.3765 37.4644C20.9889 37.3473 20.8744 37.0222 20.8799 36.6832C20.89 36.0529 20.9549 35.4233 20.9964 34.8026V34.8025Z" fill="white"/>
<path d="M29.3975 25.4346C30.4013 25.5142 31.3253 25.8071 32.2651 25.3922C31.9564 24.5031 32.3007 23.7956 32.8554 23.1859C33.951 21.9815 35.2655 21.2161 36.963 21.3082C37.0467 21.3127 37.1342 21.3018 37.2158 21.2814C37.7393 21.1507 38.0338 21.4046 37.9269 21.9379C37.8535 22.3042 37.7147 22.6574 37.6051 23.0164C37.4135 23.6438 37.5085 23.7624 38.131 23.904C38.3852 23.9618 38.7627 24.1316 38.8075 24.3174C38.8932 24.6725 38.4977 24.7852 38.2181 24.8821C37.4843 25.1363 36.7543 25.2286 36.0676 24.7013C35.6991 24.9416 35.337 25.2038 34.9509 25.4236C34.3246 25.78 33.6655 26.0178 32.9219 25.8498C32.8436 25.8321 32.7183 25.8641 32.6646 25.9204C32.0602 26.5552 31.2696 26.7168 30.4532 26.7698C29.7329 26.8166 29.0079 26.7869 28.286 26.8177C27.898 26.8343 27.5109 26.8977 27.126 26.9573C26.6117 27.0369 26.34 26.7554 26.5694 26.2851C26.7741 25.8656 27.0547 25.4551 27.3909 25.1339C28.0378 24.5162 28.7475 23.9643 29.4315 23.3854C29.5732 23.2655 29.7162 23.1471 29.9583 22.9445C29.4527 23 29.0669 23.0673 28.6796 23.0776C28.3087 23.0875 27.9242 23.0885 27.5678 23.002C27.1529 22.9013 26.9388 22.4959 27.0378 22.1311C27.1477 21.7258 27.4531 21.7289 27.8166 21.6981C28.7498 21.6189 29.6745 21.4434 30.606 21.3349C30.9449 21.2954 31.3044 21.2835 31.6349 21.3525C32.2637 21.4837 32.4656 21.9897 32.1202 22.5364C31.9369 22.8266 31.6932 23.0816 31.4582 23.3354C31.1341 23.6855 30.7931 24.0198 30.4584 24.3599C30.126 24.6978 29.7923 25.0347 29.3973 25.4346H29.3975ZM36.0602 22.6367C35.1346 22.797 34.3042 23.4622 34.1394 24.1752C35.1841 24.0856 35.8053 23.5881 36.0602 22.6367Z" fill="white"/>
<path d="M13.6623 27.3468C13.5678 27.4735 13.4417 27.5872 13.3838 27.7288C12.8745 28.9725 12.3919 30.2273 11.8677 31.4646C11.7065 31.8451 11.4694 32.2041 11.2106 32.5277C11.0982 32.6683 10.8018 32.8002 10.6635 32.7459C10.4951 32.6797 10.2944 32.4091 10.301 32.2343C10.3254 31.5891 10.3664 30.932 10.5148 30.3064C11.0993 27.8437 11.9997 25.5073 13.4905 23.36C13.3506 23.3937 13.2672 23.4383 13.192 23.4272C12.9664 23.3938 12.6329 23.4091 12.548 23.2747C12.4352 23.0964 12.4563 22.7731 12.5339 22.5523C12.6036 22.3541 12.8002 22.1659 12.988 22.0495C14.1491 21.3297 15.3993 21.0728 16.7209 21.5022C18.5465 22.0952 19.1888 23.9632 18.1069 25.5454C17.2088 26.8586 15.9011 27.5045 14.3458 27.6694C13.882 27.7185 13.7471 27.6254 13.661 27.3466C13.7521 27.2539 13.8277 27.13 13.9379 27.0753C14.1433 26.9733 14.3716 26.9188 14.5852 26.8316C15.3311 26.5269 16.0057 26.1146 16.496 25.4591C16.9524 24.8491 16.9457 24.1139 16.4732 23.683C16.0001 23.2517 15.4126 23.1657 14.9281 23.1649C14.506 24.4491 14.1075 25.6497 13.7203 26.8541C13.6707 27.0087 13.6801 27.1821 13.6623 27.3468Z" fill="white"/>
<path d="M24.5334 24.2638C23.9055 24.2944 23.3163 24.3482 22.728 24.3401C22.4821 24.3367 22.1957 24.2564 22.0065 24.1095C21.857 23.9934 21.7286 23.6959 21.7732 23.5272C21.8175 23.3597 22.0787 23.1548 22.2635 23.1344C23.5697 22.99 24.8801 22.8796 26.1906 22.7787C26.6765 22.7413 26.947 23.048 26.8116 23.5168C26.7142 23.854 26.5495 24.2028 26.3215 24.4656C25.5735 25.3276 24.7831 26.1528 24.0087 26.9919C23.9531 27.0522 23.8955 27.1106 23.7605 27.2518C25.2043 26.9899 26.5259 27.2921 27.8582 27.3498C28.5926 27.3816 29.3357 27.1724 30.0773 27.0957C30.2639 27.0764 30.4598 27.1485 30.6514 27.1787C30.5738 27.3597 30.5464 27.6051 30.4103 27.7114C29.4297 28.4771 28.2603 28.551 27.078 28.5752C25.9807 28.5976 24.8797 28.5966 23.7883 28.6945C23.0749 28.7585 22.3737 28.9714 21.6712 29.1355C21.3612 29.2079 21.0669 29.2626 20.8307 28.9892C20.5858 28.7054 20.6223 28.3673 20.8005 28.0983C21.077 27.6806 21.3888 27.2748 21.7439 26.923C22.6557 26.0201 23.5997 25.1497 24.5334 24.2638Z" fill="white"/>
<path d="M31.5325 31.2138C31.1927 31.1411 30.889 31.1048 30.6061 31.008C30.2988 30.9029 30.067 30.6854 30.1454 30.3216C30.2206 29.9733 30.4935 29.7992 30.8269 29.8579C31.8042 30.03 32.439 29.6683 32.8286 28.7544C32.9776 28.405 33.2438 28.0857 33.52 27.8182C33.6765 27.6667 33.9854 27.546 34.183 27.5927C34.498 27.6671 34.5259 28.0035 34.446 28.2816C34.3438 28.6367 34.1926 28.9777 34.0481 29.3637C34.9482 29.1692 35.8193 28.9788 36.6916 28.7943C36.8605 28.7586 37.0358 28.7216 37.2053 28.7317C37.3174 28.7384 37.4245 28.8284 37.5338 28.881C37.4735 28.985 37.4375 29.1249 37.3478 29.1853C37.1701 29.3051 36.9676 29.3928 36.767 29.4732C35.7616 29.8762 34.7578 30.2844 33.7434 30.6636C33.4731 30.7647 33.3178 30.9055 33.2234 31.1764C32.7194 32.6227 32.2104 34.0675 31.676 35.5027C31.5902 35.733 31.3591 36.0874 31.2099 36.0801C30.8572 36.063 30.8794 35.6748 30.8506 35.3949C30.7019 33.9505 31.0135 32.5778 31.5324 31.2136L31.5325 31.2138Z" fill="white"/>
<path d="M26.3466 33.623C27.2548 33.0303 28.0477 32.3274 28.6328 31.407C28.7646 31.1998 28.8919 30.9885 29.0392 30.7926C29.2053 30.5718 29.4244 30.2861 29.702 30.474C29.8764 30.5921 29.9558 30.9243 29.9804 31.1703C30.0071 31.436 29.9155 31.7126 29.8839 31.9854C29.8091 32.6312 29.7275 33.2768 29.6738 33.9245C29.6563 34.1344 29.7361 34.3507 29.7359 34.5641C29.7357 34.7348 29.7375 34.985 29.6372 35.0549C29.5215 35.1356 29.2609 35.117 29.1225 35.0378C28.5821 34.7285 28.2479 34.252 28.143 33.5916C27.8267 33.9259 27.5448 34.2504 27.2347 34.5452C26.8009 34.9577 26.3214 35.2994 25.7048 35.3933C24.9463 35.5089 24.39 35.0771 24.4498 34.3082C24.4916 33.7707 24.6916 33.2447 24.8282 32.7155C24.9139 32.3838 25.1681 32.0303 24.658 31.7992C24.6312 31.7872 24.66 31.4944 24.7414 31.4263C25.398 30.8767 26.3132 31.2056 26.4089 32.0539C26.4659 32.5593 26.3733 33.0817 26.3466 33.623Z" fill="white"/>
<path d="M18.085 27.6914C18.2529 27.1909 18.3472 26.6483 18.604 26.1986C19.1602 25.2246 19.7929 24.2937 20.4141 23.3583C20.4834 23.2539 20.7033 23.1606 20.8127 23.1943C20.9482 23.236 21.1302 23.4109 21.1369 23.5365C21.1625 24.0188 21.2336 24.5394 21.0896 24.9813C20.8145 25.8258 20.3927 26.6215 20.0541 27.4467C19.8762 27.8804 19.725 28.328 19.5997 28.7798C19.4888 29.1795 19.0181 29.3198 18.6643 29.0116C18.2765 28.6738 18.1793 28.2103 18.085 27.6914Z" fill="white"/>
<path d="M20.2617 21.7801C20.316 21.6454 20.3869 21.3601 20.5346 21.1227C21.0421 20.3062 21.7958 19.7902 22.6951 19.4924C22.8614 19.4374 23.0714 19.5141 23.2611 19.53C23.2293 19.7152 23.2499 19.934 23.1567 20.0797C22.73 20.7459 22.2858 21.4024 21.8158 22.0386C21.6592 22.2507 21.4299 22.4391 21.1931 22.5553C20.7047 22.7952 20.2529 22.4734 20.2617 21.7801Z" fill="white"/>
</g>
<defs>
<clipPath id="clip0_301_2717">
<rect width="51.1015" height="48" fill="white"/>
</clipPath>
</defs>
</svg>
