<svg viewBox="0 0 41.72 47.23" xmlns="http://www.w3.org/2000/svg"><g fill="#fff"><circle cx="11.54" cy="5.44" r="5.44"/><rect height="4.85" rx="2.43" width="19.9" x="21.82" y="15.14"/><g transform="translate(-3.14 -.39)"><path d="m31.3 10 1.21 2.1a.74.74 0 0 0 1 .26.73.73 0 0 0 .26-1l-1-1.77 2-3.45a.85.85 0 0 0 .1-.4.82.82 0 0 0 -.1-.4l-1.21-2.1a.73.73 0 0 0 -1-.27.74.74 0 0 0 -.26 1l1 1.77-2 3.45a.82.82 0 0 0 -.1.4.85.85 0 0 0 .1.41z"/><path d="m35.18 10 1.21 2.1a.74.74 0 0 0 1 .26.73.73 0 0 0 .26-1l-1-1.77 2-3.45a.66.66 0 0 0 .1-.4.65.65 0 0 0 -.1-.4l-1.21-2.1a.72.72 0 0 0 -1-.27.73.73 0 0 0 -.27 1l1 1.77-2 3.45a.82.82 0 0 0 -.1.4.85.85 0 0 0 .11.41z"/><path d="m27.39 22.52h-3.85l-7-8.29a1.34 1.34 0 0 0 -.11-.14l-.1-.11a2.43 2.43 0 0 0 -4.11 1.74v13.07l-8.76 15.21a2.42 2.42 0 0 0 .89 3.31 2.42 2.42 0 0 0 3.31-.89l6.8-11.76h.21.32l9.9 11.8a2.43 2.43 0 1 0 3.72-3.12l-11.51-13.75v-7.19l3.35 4a2.32 2.32 0 0 0 .87.66 2.4 2.4 0 0 0 1.22.33h4.85a2.44 2.44 0 0 0 2.43-2.43 2.44 2.44 0 0 0 -2.43-2.44z"/></g></g></svg>