<svg viewBox="0 0 36.55 28.51" xmlns="http://www.w3.org/2000/svg"><circle cx="18.75" cy="2.43" fill="#fff" r="2.43"/><circle cx="9.27" cy="22.86" fill="none" r="4.89" stroke="#fff" stroke-miterlimit="10" stroke-width="1.5"/><circle cx="30.91" cy="22.86" fill="none" r="4.89" stroke="#fff" stroke-miterlimit="10" stroke-width="1.5"/><g fill="#fff"><rect height="4.09" rx="1.77" transform="matrix(.5 -.8660254 .8660254 .5 -1.07 16.91)" width="11.25" x="8.49" y="7.34"/><rect height="8.79" rx=".86" width="5.38" x="4.37" y="5.04"/><rect height="7.51" rx=".8" width="7.69" y="6.32"/><rect height="8.5" rx=".87" width="2.31" x="16.54" y="14.99"/><rect height="8.7" rx="1.08" transform="matrix(.5 -.87 .87 .5 -5.19 20)" width="2.88" x="13.29" y="10.14"/><rect height="1.83" rx=".92" width="5.13" x="18.75" y="9.16"/><rect height="1.83" rx=".92" transform="matrix(.5 .8660254 -.8660254 .5 16.16 -11.91)" width="6.56" x="15.11" y="7.13"/><path d="m25.08 14.08 1.23 2.38a.58.58 0 0 1 0 .57c-.71 1.16-3.47 5.54-5.15 6h-1.08v-8.03"/><path d="m23.31 11.49h2.69l3.15 5a1.36 1.36 0 0 1 -.44.65 2.25 2.25 0 0 1 -.77.27l-2.67-4.53h-2s-.33-.1-.33-.66a.82.82 0 0 1 .37-.73z"/><path d="m29 12.76a16.33 16.33 0 0 1 2.22 0c.45 0 1 1.17 1 1.17h-4.39"/><path d="m5.17 15.2a11 11 0 0 1 .94-.7.23.23 0 0 1 .14 0h3a.25.25 0 0 1 .12 0l5.9 3.34s0 .93 0 1.17-.69 0-.9-.13c-1.46-.83-5.57-3.29-5.57-3.29h-3.57"/></g></svg>